<svg xmlns="http://www.w3.org/2000/svg" width="23.262" height="20" viewBox="0 0 23.262 20">
  <g id="fotter_icon4" transform="translate(0 -35.9)">
    <path id="パス_115" data-name="パス 115" d="M22.753,39.971a.918.918,0,0,0-.423-.1.931.931,0,0,0-.545.177l-2.476,1.781L1.222,35.945A.9.9,0,0,0,.936,35.9a.955.955,0,0,0-.55.177A.93.93,0,0,0,0,36.831V54.969a.933.933,0,0,0,.936.931.859.859,0,0,0,.286-.045l18.087-5.884,2.472,1.786a.91.91,0,0,0,.545.177,1,1,0,0,0,.427-.1A.927.927,0,0,0,23.262,51V40.8A.927.927,0,0,0,22.753,39.971Zm-1.358,9.2-1.377-.995A.941.941,0,0,0,19.473,48a.9.9,0,0,0-.291.045L1.863,53.683V38.117l17.319,5.634a.936.936,0,0,0,.836-.132l1.377-1Z" transform="translate(0)" fill="#fff"/>
  </g>
</svg>
