<svg xmlns="http://www.w3.org/2000/svg" width="15.794" height="20" viewBox="0 0 15.794 20">
  <g id="fotter_icon3" transform="translate(-53.8)">
    <path id="パス_114" data-name="パス 114" d="M67.774,0H60.4a1.982,1.982,0,0,0-1.41.586l-4.6,4.6A2,2,0,0,0,53.8,6.6V18.18A1.822,1.822,0,0,0,55.62,20H67.774a1.822,1.822,0,0,0,1.82-1.82V1.816A1.821,1.821,0,0,0,67.774,0ZM59.752,1.261V5.351c0,.441-.172.613-.613.613H55.054Zm8.819,16.915a.8.8,0,0,1-.8.8H55.62a.8.8,0,0,1-.8-.8V6.874h4.862a.977.977,0,0,0,.976-.976V1.023h7.112a.8.8,0,0,1,.8.8Z" fill="#fff"/>
  </g>
</svg>
