<svg xmlns="http://www.w3.org/2000/svg" width="17.445" height="20" viewBox="0 0 17.445 20">
  <g id="fotter_icon2" transform="translate(-42.7)">
    <path id="パス_112" data-name="パス 112" d="M49.923,2.451,42.212.112a2.825,2.825,0,0,0-1.578,0L32.923,2.451a.276.276,0,0,0-.223.244.272.272,0,0,0,.223.24l3.57,1.082V7.011A6.541,6.541,0,0,0,37.985,11.2a5.271,5.271,0,0,0,1.582,1.3,3.927,3.927,0,0,0,3.836,0,5.619,5.619,0,0,0,2.2-2.187,6.629,6.629,0,0,0,.879-3.3V3.978l1.766-.535V5.933a.491.491,0,0,0-.43.485.483.483,0,0,0,.348.465l-.375,2.454a.209.209,0,0,0,.051.171.215.215,0,0,0,.16.074h1.418a.209.209,0,0,0,.16-.074.223.223,0,0,0,.051-.171l-.375-2.454a.487.487,0,0,0-.082-.95V3.16l.754-.229a.276.276,0,0,0,.223-.24A.272.272,0,0,0,49.923,2.451Zm-8.438,9.1a2.556,2.556,0,0,1-1.227-.33,4.2,4.2,0,0,1-1.617-1.629,4.962,4.962,0,0,1-.457-1.062A7.1,7.1,0,0,0,42.86,5.39a4.693,4.693,0,0,0,2.117,2.272,5.068,5.068,0,0,1-1.113,2.606,3.94,3.94,0,0,1-1.148.954A2.627,2.627,0,0,1,41.485,11.551Z" transform="translate(10)" fill="#fff"/>
    <path id="パス_113" data-name="パス 113" d="M86.5,313.623l-.039-.023-4.322,3.773L77.812,313.6l-.039.023a7.515,7.515,0,0,0-2.973,6.061v.039l.031.019a17.97,17.97,0,0,0,14.606,0l.031-.019v-.039A7.532,7.532,0,0,0,86.5,313.623Z" transform="translate(-30.468 -301.293)" fill="#fff"/>
  </g>
</svg>
