<?xml version="1.0" encoding="UTF-8"?>
<svg xmlns="http://www.w3.org/2000/svg" viewBox="0 0 80 80">
  <defs>
    <style>
      .cls-1 {
        fill: #fff;
      }

      .cls-2 {
        fill: #dcdddd;
      }

      .cls-3 {
        fill: #515254;
      }

      .cls-4 {
        fill: none;
        stroke: #515254;
        stroke-linecap: round;
        stroke-miterlimit: 10;
      }
    </style>
  </defs>
  <g id="_白" data-name="白">
    <path class="cls-1" d="M1.5,15.71l1.08-.96,7.1-2.59,4.27-1.99,2.95-.72,3.49-.54,3.43,.3,3.07,.66,2.41,1.26,4.09,2.53,5.09,3.19,3.22,.9,3.37,.48,2.95,.3h.96l1.21-3.25,1.5-3.49,1.69-1.32,2.53-.66,2.29-.06,1.38,.9,.82,1.02,1.95,2.95-.78,1.08-.18,1.57,.12,1.26s-.24,4.76-.06,4.82,1.57,1.14,1.57,1.14l1.16,1.32,1.73,.78,1.75,.9s1.56,.96,1.56,1.2,1.63,3.37,1.63,3.37l1.57,2.89,1.51,.9,1.08,.48,2.31,.3,.76,.72-1.26,1.51-2.11,1.11-4.21,.93-1.81-.48h-1.75l-.78-.78-1.2-.6-3.97,.18-5.55-.42-1.56-.48-2.89,1.99-4.15,1.51-3.07,.3-1.12,.66-3.69,.54-1.63-.42-1.2,.42-4.64,2.11-.96,1.32-1.57,1.75h-.72l-1.02-.36-.96-.54-1.14,.24-2.65,1.44-5.16-1.14-.68-1.26-2.49-1.02-.64-1.2-1.42-3.85,.63-.81,3.28-1.35,7.86-.54s3.01-.9,3.19-.78,4.01-1.26,4.01-1.26l2.56-.96,1.69-.6,.78-1.08,1.83-3.37,1.06-.3,1.75-1.2,.36-1.14-2.83,.66-4.39,.36-1.81-.42-.99-.84,.51-.96,.36-1.44-.87-1.02v-1.38l.63-1.44-3.07,1.08-3.31,1.32h-3.19l-4.52-.06-5-.54-4.58-1.63-2.23-1.14-1.81-.96-1.93-1.93-.54-1.32Z"/>
  </g>
  <g id="_グレー" data-name="グレー">
    <path class="cls-2" d="M6.77,13.22s1.5,2.51,8.04,.5c3.61-1.36,3.17-1.48,3.17-1.48,0,0,1.4-.84,2.09-.68s1.12-.4,1.97,.88,1.44,4.25,4.33,4.62c2.57,.92,3.21,.52,3.21,.52,0,0-2.01,2.57-4.62,3.61,0,0,3.66-.42,8.23-2.61,0,0,1.04-.56,2.21-.24s7.38,2.09,9.23,1.73,1.93-.48,2.97-1.24-4.24-.83-4.24-.83l-6.1-1.92-4.63-2.9-3.31-2.04-4.76-1.99-4.15-.24-4.05,.68-2.39,.58-2.37,1.1-2.41,.92-1.69,.76-.73,.26Z"/>
    <path class="cls-2" d="M58.78,12.79l1.32-.78,1.38-.54,1.11-.21h2.83l1.38,.39-1.35,1.14-1.63,1.69-.66,1.29-.54,.72-.87,.63h-1.05l-.57-.36-1.35-1.6s-.84-1.88,0-2.38Z"/>
    <path class="cls-2" d="M48.58,26.67s1.66,1.26,2.33,1.25c0,0,.08,.7-.84,1.28s-1.34-.68-1.34-.68c0,0-.32-1.41-.15-1.85Z"/>
    <path class="cls-2" d="M51.63,27.19s1.73,3.26,3.73,.82c0,0,3.19,1.22,4.62-2.82l1.14-.18,.51-2.47h-2.08l-1.51,2.17-2.62,1.75-3.81,.74Z"/>
    <path class="cls-2" d="M53.88,35.61s1.1,2.29,2.76,2.32l2.11-1.51,2.35-3.13,.78-.51s2.05-2.53,1.93-2.86,1.35,1.47,1.32,3.49,.72,3.28,3.55,2.05,4.58,.54,4.58,.54l-1.61-2.43-1.28-3.38-1.44-1.81s-1.85-1.17-2.02-1.26-1.89-.66-1.89-.66l-1.2-1.35-.99-.76-1.18-1.1-1.23,3.79-1.69,3.91-2.35,2.5-2.5,2.17Z"/>
    <path class="cls-2" d="M12.52,40.24s2.05-1.41,3.61-1.41,5.74-.36,5.74-.36c0,0-.8,.58-.94,.8s-.46,.54-.12,.84,1.4,1.28,1.34,2.11l-1.99,1.02-3.37,.52s-2.61,.82-2.67,.76-1.77-.46-1.77-.46l-1.12-.9-.12-1.66,.52-.64,.88-.62Z"/>
    <path class="cls-2" d="M21.89,43.66s-.1,1.06,.92,1.26-1.91,.88-1.91,.88l-3.09,.98-1.93,.36s-.84,.62-2.17-.56,2.09-.96,2.09-.96l6.08-1.97Z"/>
    <path class="cls-2" d="M16.51,47.46s-2.11,.84-.44,1.73,2.23,1.12,4.31,.68,2.65-1.1,2.65-1.1l1.13-.81s-2.21,.22-2.47-1.83l-5.18,1.32Z"/>
    <path class="cls-2" d="M30.56,47.32s4.76-.48,7.33-4.02l-.56-.38-.4-.18-2.7,2.01-3.19,.74-.47,1.83Z"/>
    <path class="cls-2" d="M40,43.19s.27,2.24-4.18,4.13c0,0-1.44,.39-2.47,1.35s.42,1.17,.42,1.17l1.02,.81,.24,.84s2.26,.27,2.65-.21-.45-.96-.45-.96l-.87-.39-.51-.15-.48-.09-.48-.6,1.87-1.2,4.21-2.86,1.96-2.08-2.92,.24Z"/>
  </g>
  <g id="_レイヤー_1" data-name="レイヤー 1">
    <g>
      <path class="cls-3" d="M11.36,67.45c0,.48,.24,.71,.73,.71h.38v.16h-4.17v-.17h1.44c-.2-.1-.37-.31-.5-.62-.13-.31-.2-.72-.2-1.21v-6.21c0-.47-.24-.7-.73-.7h-.01v-.17h4c2.17,0,3.25,.96,3.25,2.89,0,1.02-.29,1.76-.87,2.21-.58,.45-1.37,.68-2.38,.68h-.94v2.44Zm-.72-7.94c.2,.11,.37,.32,.5,.63s.2,.71,.2,1.2v3.5h1.08c.35,0,.61-.17,.79-.5,.18-.33,.27-.76,.27-1.28s-.09-1.08-.28-1.63c-.19-.55-.45-1.01-.8-1.37-.35-.36-.75-.55-1.21-.55h-.55Z"/>
      <path class="cls-3" d="M22.08,67.41c.15,.34,.29,.55,.42,.63,.13,.08,.29,.12,.47,.12v.17h-3.87v-.17c.32,0,.48-.09,.48-.27,0-.1-.04-.25-.13-.46l-.78-1.94h-2.74l-.27,.78c-.09,.23-.13,.46-.13,.69,0,.31,.08,.58,.24,.79,.16,.22,.37,.35,.62,.4v.17h-2.26v-.17h1.29c-.09-.19-.13-.42-.13-.71,0-.36,.07-.75,.22-1.17l1.91-5.46,.56-1.59c.24,0,.44,.1,.58,.29s.32,.54,.54,1.05l2.99,6.84Zm-3.47-2.08l-1.42-3.45-1.21,3.45h2.63Z"/>
      <path class="cls-3" d="M30.77,64.34c-.42,0-.64,.23-.64,.7v2.31c-.42,.35-.91,.6-1.49,.75-.58,.15-1.19,.23-1.82,.23-.81,0-1.54-.17-2.2-.5-.66-.33-1.19-.85-1.58-1.54-.39-.69-.59-1.55-.59-2.57s.2-1.83,.6-2.53c.4-.7,.94-1.22,1.62-1.57,.68-.35,1.42-.52,2.22-.52,.48,0,.93,.06,1.36,.18,.43,.12,.96,.32,1.58,.58v3.17h-.14c-.28-.8-.61-1.47-1.01-2.01-.39-.55-.81-.95-1.24-1.22-.43-.27-.85-.4-1.25-.4-.52,0-.94,.22-1.27,.65-.33,.43-.49,1.04-.49,1.83s.16,1.66,.48,2.59c.32,.93,.75,1.72,1.28,2.37,.53,.65,1.1,.97,1.7,.97,.09,0,.15,0,.2-.01v-2.76c0-.47-.24-.7-.73-.7v-.17h3.42v.17Z"/>
      <path class="cls-3" d="M37.88,68.33h-6.85v-.17h1.5c-.22-.07-.4-.25-.55-.55-.15-.3-.22-.71-.22-1.24v-6.27c0-.47-.24-.7-.73-.7v-.17h6.67v3.68h-.14c-.11-1.03-.36-1.86-.75-2.48-.39-.62-1.02-.93-1.88-.93h-1.53c.2,.11,.37,.32,.51,.63,.14,.31,.21,.71,.21,1.2v2.35h.65c.39,0,.69-.05,.9-.14,.21-.09,.36-.24,.46-.45,.1-.2,.18-.5,.24-.89h.16v3.13h-.16c-.06-.39-.14-.69-.24-.9s-.25-.36-.46-.45c-.21-.09-.51-.14-.9-.14h-.65v3.47c0,.48,.24,.71,.71,.71h.3c.87,0,1.49-.31,1.88-.92,.39-.62,.64-1.44,.76-2.48h.13v3.69Z"/>
      <path class="cls-3" d="M50.21,62.81h-.14c-.07-.59-.16-1.11-.27-1.56-.11-.45-.32-.85-.63-1.21s-.74-.53-1.31-.53h-.97c.2,.11,.37,.32,.5,.63,.13,.31,.2,.71,.2,1.2v6.11c0,.48,.24,.71,.73,.71h.01v.17h-3.78v-.17h1.43c-.2-.11-.37-.33-.5-.64-.13-.31-.2-.72-.2-1.21v-6.11c0-.37-.16-.59-.49-.66-.49,.05-.88,.26-1.16,.61s-.47,.75-.57,1.18c-.1,.43-.19,.92-.26,1.48h-.14v-3.57h7.57v3.57Z"/>
      <path class="cls-3" d="M57.75,59.64c.67,.37,1.2,.9,1.57,1.6,.38,.7,.57,1.52,.57,2.48s-.19,1.78-.57,2.47-.9,1.22-1.57,1.59c-.67,.37-1.45,.55-2.32,.55s-1.65-.18-2.32-.55c-.67-.37-1.19-.9-1.57-1.59-.37-.69-.56-1.52-.56-2.47s.19-1.78,.56-2.48c.37-.7,.89-1.23,1.57-1.6s1.45-.55,2.32-.55,1.65,.18,2.32,.55Zm-.33,7.67c.2-.37,.3-.86,.3-1.49,0-.83-.16-1.74-.47-2.74s-.73-1.83-1.25-2.51c-.52-.68-1.07-1.02-1.64-1.02-.41,0-.71,.18-.91,.55s-.3,.86-.3,1.48c0,.83,.16,1.74,.48,2.74,.32,.99,.74,1.83,1.26,2.52,.52,.68,1.06,1.03,1.62,1.03,.41,0,.71-.18,.91-.55Z"/>
      <path class="cls-3" d="M63.48,67.45c0,.48,.24,.71,.73,.71h.38v.16h-4.17v-.17h1.44c-.2-.1-.37-.31-.5-.62-.13-.31-.2-.72-.2-1.21v-6.21c0-.47-.24-.7-.73-.7h-.01v-.17h4c2.17,0,3.25,.96,3.25,2.89,0,1.02-.29,1.76-.87,2.21-.58,.45-1.37,.68-2.38,.68h-.94v2.44Zm-.71-7.94c.2,.11,.37,.32,.5,.63s.2,.71,.2,1.2v3.5h1.08c.35,0,.61-.17,.79-.5,.18-.33,.27-.76,.27-1.28s-.09-1.08-.28-1.63c-.19-.55-.45-1.01-.8-1.37-.35-.36-.75-.55-1.21-.55h-.55Z"/>
      <path class="cls-3" d="M73.89,69.37v-10.18c-.52,.69-1.37,1.57-2.18,2.18l-.43-.7c1.14-.88,2.27-2.17,3.02-3.33,.74,1.16,1.87,2.44,3.02,3.33l-.43,.7c-.82-.61-1.66-1.5-2.18-2.18v10.18h-.81Z"/>
    </g>
  </g>
  <g id="_レイヤー_4" data-name="レイヤー 4">
    <path class="cls-4" d="M2.59,14.75s4.07-.75,8.12-3.13,11.29-5.04,19.38,0"/>
    <path class="cls-4" d="M1.88,17.37s10.96,8.27,20.27,5.5"/>
    <line class="cls-4" x1="20.99" y1="25.84" x2="31.6" y2="21.03"/>
    <line class="cls-4" x1="26.61" y1="26.85" x2="31.17" y2="23.88"/>
    <path class="cls-4" d="M32.66,13.2s7.03,5.82,16.18,5.34"/>
    <path class="cls-4" d="M49.87,16.21s.21-3.85,3.35-5.6,6.36-.22,7.4,.83"/>
    <path class="cls-4" d="M58.91,12.71s2.65-2.56,7.91-1.07"/>
    <line class="cls-4" x1="56.64" y1="14.04" x2="57.03" y2="14.61"/>
    <path class="cls-4" d="M60.14,16.76s1.67,1.01,2.5-.27,1.66-3.53,2.86-3.48"/>
    <path class="cls-4" d="M50.55,26.87s6.4,1.18,8.85-4.32c0,0,3.13,.05,4.17-1.67"/>
    <path class="cls-4" d="M61.51,18.74s.81,11.96-8.26,17.25"/>
    <path class="cls-4" d="M31.87,25.84s-1.63,1.42,.66,2.51c0,0,6.5,.35,9.39-1.25"/>
    <path class="cls-4" d="M36.24,33.68s.19-3.69,2.9-4.07"/>
    <path class="cls-4" d="M15.98,38.65s13.19-.93,17.61-3.55"/>
    <path class="cls-4" d="M12.52,40.24s-2.32,1-1.28,2.93,5.11,1.02,5.11,1.02c0,0,8.85-2.2,9.75-2.92"/>
    <path class="cls-4" d="M15.98,47.32s8.31-1.81,10.36-3.83"/>
    <path class="cls-4" d="M20.65,49.8s6.41-2.31,7.82-4.14"/>
    <path class="cls-4" d="M28.47,48.7s2.41-.94,2.56-3.21c0,0,4.18-.16,6.17-3.47"/>
    <path class="cls-4" d="M34.46,40.24s2.47,6.24,11.56,.7"/>
    <path class="cls-4" d="M41.23,41.73s5.8,1.31,10.17-1.73"/>
    <path class="cls-4" d="M44.3,40.69s-3.82,5.96-7.56,7.19"/>
    <path class="cls-4" d="M30.56,52.17s3.11-.38,2.79-3.5"/>
    <path class="cls-4" d="M33.59,53.25s3.17-1.56,0-3.45"/>
    <path class="cls-4" d="M36.4,53.25s3.33-2.25-.48-3.45"/>
    <path class="cls-4" d="M53.88,38.34s6.88,1.71,10.82,.94c0,0,8.23,4.01,13.61-1.57"/>
    <path class="cls-4" d="M54.86,40s6.6-5.65,6.67-6.99"/>
    <path class="cls-4" d="M60.72,40.24s2.13-3.11,2.05-4.52"/>
    <path class="cls-4" d="M63.21,24.32s.8,2.25,4.01,3.05,3.83,5.08,4.13,5.64c0,0,.82,2.74,3.53,3.5"/>
  </g>
</svg>