<?xml version="1.0" encoding="UTF-8"?>
<svg xmlns="http://www.w3.org/2000/svg" viewBox="0 0 80 80">
  <defs>
    <style>
      .cls-1 {
        fill: #dcdcdc;
      }

      .cls-2, .cls-3 {
        fill: #515254;
      }

      .cls-4, .cls-5, .cls-3, .cls-6 {
        stroke-miterlimit: 10;
      }

      .cls-4, .cls-3, .cls-6 {
        stroke: #515254;
      }

      .cls-4, .cls-6 {
        fill: none;
        stroke-linecap: round;
      }

      .cls-5 {
        fill: #fff;
        stroke: #fff;
      }

      .cls-5, .cls-3 {
        stroke-width: .25px;
      }

      .cls-6 {
        stroke-width: .75px;
      }
    </style>
  </defs>
  <g id="_レイヤー_1" data-name="レイヤー 1">
    <g>
      <path class="cls-2" d="M11.36,67.45c0,.48,.24,.71,.73,.71h.38v.16h-4.17v-.17h1.44c-.2-.1-.37-.31-.5-.62-.13-.31-.2-.72-.2-1.21v-6.21c0-.47-.24-.7-.73-.7h-.01v-.17h4c2.17,0,3.25,.96,3.25,2.89,0,1.02-.29,1.76-.87,2.21-.58,.45-1.37,.68-2.38,.68h-.94v2.44Zm-.72-7.94c.2,.11,.37,.32,.5,.63s.2,.71,.2,1.2v3.5h1.08c.35,0,.61-.17,.79-.5,.18-.33,.27-.76,.27-1.28s-.09-1.08-.28-1.63c-.19-.55-.45-1.01-.8-1.37-.35-.36-.75-.55-1.21-.55h-.55Z"/>
      <path class="cls-2" d="M22.08,67.41c.15,.34,.29,.55,.42,.63,.13,.08,.29,.12,.47,.12v.17h-3.87v-.17c.32,0,.48-.09,.48-.27,0-.1-.04-.25-.13-.46l-.78-1.94h-2.74l-.27,.78c-.09,.23-.13,.46-.13,.69,0,.31,.08,.58,.24,.79,.16,.22,.37,.35,.62,.4v.17h-2.26v-.17h1.29c-.09-.19-.13-.42-.13-.71,0-.36,.07-.75,.22-1.17l1.91-5.46,.56-1.59c.24,0,.44,.1,.58,.29s.32,.54,.54,1.05l2.99,6.84Zm-3.47-2.08l-1.42-3.45-1.21,3.45h2.63Z"/>
      <path class="cls-2" d="M30.77,64.34c-.42,0-.64,.23-.64,.7v2.31c-.42,.35-.91,.6-1.49,.75-.58,.15-1.19,.23-1.82,.23-.81,0-1.54-.17-2.2-.5-.66-.33-1.19-.85-1.58-1.54-.39-.69-.59-1.55-.59-2.57s.2-1.83,.6-2.53c.4-.7,.94-1.22,1.62-1.57,.68-.35,1.42-.52,2.22-.52,.48,0,.93,.06,1.36,.18,.43,.12,.96,.32,1.58,.58v3.17h-.14c-.28-.8-.61-1.47-1.01-2.01-.39-.55-.81-.95-1.24-1.22-.43-.27-.85-.4-1.25-.4-.52,0-.94,.22-1.27,.65-.33,.43-.49,1.04-.49,1.83s.16,1.66,.48,2.59c.32,.93,.75,1.72,1.28,2.37,.53,.65,1.1,.97,1.7,.97,.09,0,.15,0,.2-.01v-2.76c0-.47-.24-.7-.73-.7v-.17h3.42v.17Z"/>
      <path class="cls-2" d="M37.88,68.33h-6.85v-.17h1.5c-.22-.07-.4-.25-.55-.55-.15-.3-.22-.71-.22-1.24v-6.27c0-.47-.24-.7-.73-.7v-.17h6.67v3.68h-.14c-.11-1.03-.36-1.86-.75-2.48-.39-.62-1.02-.93-1.88-.93h-1.53c.2,.11,.37,.32,.51,.63,.14,.31,.21,.71,.21,1.2v2.35h.65c.39,0,.69-.05,.9-.14,.21-.09,.36-.24,.46-.45,.1-.2,.18-.5,.24-.89h.16v3.13h-.16c-.06-.39-.14-.69-.24-.9s-.25-.36-.46-.45c-.21-.09-.51-.14-.9-.14h-.65v3.47c0,.48,.24,.71,.71,.71h.3c.87,0,1.49-.31,1.88-.92,.39-.62,.64-1.44,.76-2.48h.13v3.69Z"/>
      <path class="cls-2" d="M50.21,62.81h-.14c-.07-.59-.16-1.11-.27-1.56-.11-.45-.32-.85-.63-1.21s-.74-.53-1.31-.53h-.97c.2,.11,.37,.32,.5,.63,.13,.31,.2,.71,.2,1.2v6.11c0,.48,.24,.71,.73,.71h.01v.17h-3.78v-.17h1.43c-.2-.11-.37-.33-.5-.64-.13-.31-.2-.72-.2-1.21v-6.11c0-.37-.16-.59-.49-.66-.49,.05-.88,.26-1.16,.61s-.47,.75-.57,1.18c-.1,.43-.19,.92-.26,1.48h-.14v-3.57h7.57v3.57Z"/>
      <path class="cls-2" d="M57.75,59.64c.67,.37,1.2,.9,1.57,1.6,.38,.7,.57,1.52,.57,2.48s-.19,1.78-.57,2.47-.9,1.22-1.57,1.59c-.67,.37-1.45,.55-2.32,.55s-1.65-.18-2.32-.55c-.67-.37-1.19-.9-1.57-1.59-.37-.69-.56-1.52-.56-2.47s.19-1.78,.56-2.48c.37-.7,.89-1.23,1.57-1.6s1.45-.55,2.32-.55,1.65,.18,2.32,.55Zm-.33,7.67c.2-.37,.3-.86,.3-1.49,0-.83-.16-1.74-.47-2.74s-.73-1.83-1.25-2.51c-.52-.68-1.07-1.02-1.64-1.02-.41,0-.71,.18-.91,.55s-.3,.86-.3,1.48c0,.83,.16,1.74,.48,2.74,.32,.99,.74,1.83,1.26,2.52,.52,.68,1.06,1.03,1.62,1.03,.41,0,.71-.18,.91-.55Z"/>
      <path class="cls-2" d="M63.48,67.45c0,.48,.24,.71,.73,.71h.38v.16h-4.17v-.17h1.44c-.2-.1-.37-.31-.5-.62-.13-.31-.2-.72-.2-1.21v-6.21c0-.47-.24-.7-.73-.7h-.01v-.17h4c2.17,0,3.25,.96,3.25,2.89,0,1.02-.29,1.76-.87,2.21-.58,.45-1.37,.68-2.38,.68h-.94v2.44Zm-.71-7.94c.2,.11,.37,.32,.5,.63s.2,.71,.2,1.2v3.5h1.08c.35,0,.61-.17,.79-.5,.18-.33,.27-.76,.27-1.28s-.09-1.08-.28-1.63c-.19-.55-.45-1.01-.8-1.37-.35-.36-.75-.55-1.21-.55h-.55Z"/>
      <path class="cls-2" d="M73.89,69.37v-10.18c-.52,.69-1.37,1.57-2.18,2.18l-.43-.7c1.14-.88,2.27-2.17,3.02-3.33,.74,1.16,1.87,2.44,3.02,3.33l-.43,.7c-.82-.61-1.66-1.5-2.18-2.18v10.18h-.81Z"/>
    </g>
    <polygon class="cls-5" points="19.26 9.57 19.5 8.12 20.4 6.26 21.43 5.48 22.63 4.93 23.96 4.45 24.5 4.45 26.79 4.45 29.13 4.99 30.7 6.02 31.48 7.01 31.96 8.24 32.26 10.59 33.23 13.12 33.83 15.83 34.37 18.3 36 20.04 37.68 21.13 39.25 22.57 41.72 25.76 44.85 27.33 48.1 29.68 50.32 32.38 55.68 40 60.41 44.73 62.77 47.01 59.48 48.64 54.48 50.2 45.63 46.71 43.82 43.7 43.64 45.93 43.1 46.47 41.48 47.92 38.62 49.06 34.19 46.71 30.22 45.75 25.16 43.7 22.97 41.48 22.15 40.81 19.62 38.59 17.29 34.01 16.67 30.94 17.29 26.97 16.67 23.23 17.46 16.43 18.6 10.95 19.26 9.57"/>
  </g>
  <g id="_レイヤー_3" data-name="レイヤー 3">
    <path class="cls-1" d="M35.27,19.07s6.19,4.36,6.63,6.41,10.38,9.16,10.38,9.16l2.59,3.82,7.82,8.7s-3.21,2.68-8.75,2.92l-4.27-1.33-2.87-1.86-.92-.5s-1.06,.02-1.9-1.64l-.53,1.37-1.1-.1-1.5-.31-2.76-1.17-7.89-5.57-2.07-3.22-.76-1.44s-1.16-5.34-.36-8.43c.74-1.61,1.38-1.77,1.38-1.77,0,0,6.42-2.34,6.87-5.04Z"/>
    <path class="cls-1" d="M18.18,36.24s.18-1.54,1.02-1.66c0,0,1.84,2.44,3.58,1.66s1.38-.75,1.38-.75c0,0,.63,.09,.87,.75s.48,1.41,1.51,2.23,8.72,5.78,8.72,5.78c0,0-5.91-.6-7.97-1.47s-3.22-.42-3.22-.42l-5.04-4.27-.85-1.84Z"/>
  </g>
  <g id="_レイヤー_2" data-name="レイヤー 2">
    <path class="cls-4" d="M17.35,17.32s.64-5.11,1.73-6.52"/>
    <path class="cls-4" d="M19.08,9.45s.87-5.09,5.63-5.3"/>
    <path class="cls-4" d="M26.88,4.15s5.36,.93,5.42,5.3"/>
    <path class="cls-4" d="M32.51,10.8s1.51,4.65,1.6,6.28"/>
    <path class="cls-4" d="M34.76,18.3s1.38,2.47,3.22,3.1"/>
    <path class="cls-4" d="M30.85,26.82s5.6-4.52,13.94,.48c5.72,4.33,8.64,8.94,8.64,8.94"/>
    <path class="cls-4" d="M17,22.96s-.19,3.19,0,3.91"/>
    <path class="cls-4" d="M17.94,24.92s-4.82,13.61,7.1,17.16"/>
    <path class="cls-4" d="M23.13,41.86s3.2,3,6.5,3.66,8.08,2.36,8.99,3.39"/>
    <path class="cls-4" d="M34.46,45.87l1.32,2.25s1.16,1.71-1.12,1.97"/>
    <line class="cls-4" x1="33.91" y1="50.71" x2="37.54" y2="50.71"/>
    <path class="cls-4" d="M28.32,31.78s-1.29,2.38,0,4.97,9.24,8.13,12.52,8.97"/>
    <path class="cls-4" d="M42.32,41.35s1.81,1.84,1.66,3.4-.54,1.75-1.84,1.6"/>
    <path class="cls-4" d="M46.92,38.47s4.36,4.24-1.32,6.59"/>
    <path class="cls-4" d="M50.51,35.76s4.03,3.01,.45,6.01"/>
    <line class="cls-4" x1="20.67" y1="11.37" x2="20.67" y2="12.28"/>
    <line class="cls-4" x1="30.85" y1="11.37" x2="30.85" y2="12.28"/>
    <path class="cls-4" d="M22.99,14.43s-.8-1.91,.24-2.6,1.95-.73,2.55,.25c.6-1,2.21-.78,2.61,.06s.62,1.14,.24,2.37"/>
    <line class="cls-4" x1="24.36" y1="12.02" x2="24.01" y2="11.43"/>
    <line class="cls-4" x1="27.25" y1="12.02" x2="27.4" y2="11.45"/>
    <path class="cls-4" d="M25.16,14.51s-.3,1.02-1.91,.82c0,0,0,3.49,2.51,5.02,0,0,2.51-1.92,2.63-4.94,0,0-1.55,.18-2.09-1.08"/>
    <path class="cls-4" d="M20.89,17.98s-1.42,.42-1.81,1.34"/>
    <path class="cls-4" d="M21.65,19.24s-1.2,1.32-2.29,.08"/>
    <path class="cls-4" d="M21.25,22.03s.32,1.85,1.44,1.85"/>
    <path class="cls-4" d="M19.08,21.83s.7,1.59,2.35,1.38"/>
    <path class="cls-4" d="M30.04,17.56s2.09,.6,2.39,1.4c0,0-.6,1.18-2.39-.1"/>
    <path class="cls-4" d="M41.02,47.83s1.2,.33,.78,1.44-2.14,2.47-.78,3.31"/>
    <path class="cls-4" d="M33.2,51.87s-1.08,2.89,.51,4.53"/>
    <path class="cls-4" d="M34.46,52.45s-.54,2.12,.44,3.34"/>
    <line class="cls-4" x1="35.65" y1="52.58" x2="35.85" y2="54.58"/>
    <path class="cls-4" d="M37.64,52.58s1.2,3.01-1.43,3.93"/>
    <path class="cls-4" d="M42.44,51.35s-.42,2.85,.5,3.41"/>
    <path class="cls-4" d="M43.98,51.25s-.18,2.41,.26,2.65"/>
    <path class="cls-4" d="M43.95,56.4s2.89,.94,3.13-4.9"/>
    <line class="cls-4" x1="12.36" y1="53.58" x2="32.3" y2="53.58"/>
    <line class="cls-4" x1="37.36" y1="53.21" x2="40" y2="53.21"/>
    <line class="cls-4" x1="11.15" y1="55.58" x2="31.03" y2="55.58"/>
    <line class="cls-4" x1="45.6" y1="53.05" x2="70.95" y2="53.05"/>
    <line class="cls-4" x1="54.58" y1="54.94" x2="67.9" y2="54.94"/>
    <path class="cls-4" d="M54.41,38.2s7.77,9.33,9.49,9.78"/>
    <path class="cls-4" d="M53.15,43.28s4.91,4.88,11.04,3.76"/>
    <path class="cls-4" d="M50.21,45.38s5.83,4.83,10.05,3.26"/>
    <path class="cls-6" d="M45.6,46.66s8.53,4.89,10.11,3.54"/>
    <path class="cls-3" d="M53.15,40.99s.33-.74,1.03-.84c0,0,.74,1.43,1.36,1.61s.96,.28,1.12-.09,4.31,4.21,4.31,4.21c0,0-4.85,.14-7.83-4.9Z"/>
    <path class="cls-3" d="M50.51,44.12s.44-1.03,.78-1.04c0,0,1.46,1.88,2.23,1.26s5.04,2.61,5.04,2.61c0,0-4.33,1.42-8.05-2.83Z"/>
    <path class="cls-3" d="M47.06,45.75s.55-.88,.88-.88c0,0,1.43,1.79,2.27,1.22s5.02,2.69,5.02,2.69c0,0-4.61,1.12-8.17-3.03Z"/>
  </g>
</svg>